<svg width="35" height="35" viewBox="0 0 35 35" fill="none" xmlns="http://www.w3.org/2000/svg">
<g id="35px/agreement">
<path id="Vector" d="M29.1665 5.83341V23.3334H11.6665V5.83341H29.1665ZM29.1665 2.91675H11.6665C10.0623 2.91675 8.74984 4.22925 8.74984 5.83341V23.3334C8.74984 24.9376 10.0623 26.2501 11.6665 26.2501H29.1665C30.7707 26.2501 32.0832 24.9376 32.0832 23.3334V5.83341C32.0832 4.22925 30.7707 2.91675 29.1665 2.91675ZM18.1853 20.4167L13.1248 15.3126L15.1665 13.2563L18.1853 16.2897L25.6665 8.75008L27.7082 10.8063L18.1853 20.4167ZM5.83317 8.75008H2.9165V29.1667C2.9165 30.7709 4.229 32.0834 5.83317 32.0834H26.2498V29.1667H5.83317V8.75008Z" fill="#4F8FF0"/>
</g>
</svg>
